<?xml version="1.0" standalone="no"?>
<!DOCTYPE svg PUBLIC "-//W3C//DTD SVG 20010904//EN"
 "http://www.w3.org/TR/2001/REC-SVG-20010904/DTD/svg10.dtd">
<svg version="1.0" xmlns="http://www.w3.org/2000/svg"
 width="256.000000pt" height="256.000000pt" viewBox="0 0 256.000000 256.000000"
 preserveAspectRatio="xMidYMid meet">

<g transform="translate(0.000000,256.000000) scale(0.100000,-0.100000)"
fill="#000000" stroke="none">
<path d="M1225 2371 c-22 -11 -34 -20 -27 -20 19 -1 14 -21 -6 -21 -23 0 -46
-24 -67 -70 -23 -51 -37 -73 -62 -99 -12 -13 -25 -36 -28 -51 -3 -15 -17 -37
-30 -49 -14 -11 -25 -25 -25 -30 0 -6 -11 -21 -25 -35 -14 -14 -25 -37 -25
-51 0 -14 -3 -25 -8 -25 -4 0 -12 -10 -17 -22 -7 -15 -17 -22 -30 -20 -16 3
-17 1 -6 -11 10 -12 10 -20 -1 -36 -7 -12 -18 -21 -24 -21 -14 0 -54 -64 -54
-86 0 -8 -7 -14 -15 -14 -8 0 -15 -4 -15 -9 0 -5 -6 -16 -13 -23 -26 -27 -48
-70 -66 -129 -18 -57 -18 -59 -1 -54 14 4 19 -2 24 -37 4 -23 11 -47 16 -53 4
-5 9 -14 9 -20 3 -29 15 -46 37 -51 13 -3 24 -12 24 -20 0 -23 48 -29 71 -8
19 17 20 17 34 -2 9 -10 20 -27 25 -36 9 -14 15 -15 35 -6 20 9 23 16 18 41
-6 28 -4 30 20 25 15 -3 27 -5 27 -4 0 0 13 34 30 74 30 74 55 110 68 97 4 -3
0 -10 -8 -15 -13 -7 -15 -61 -13 -394 1 -230 -2 -388 -8 -391 -12 -8 -12 -55
1 -55 6 0 10 -37 10 -90 0 -83 -2 -90 -20 -90 -18 0 -17 -2 5 -25 19 -18 25
-35 25 -68 0 -48 31 -100 54 -91 7 3 16 -2 19 -10 4 -9 13 -16 21 -16 8 0 23
-12 34 -27 19 -26 20 -26 26 -5 l7 21 44 -19 45 -19 25 33 c14 18 25 45 25 60
0 22 4 26 18 22 15 -5 20 2 29 38 7 32 7 48 -1 56 -8 8 -6 15 7 24 16 13 17
45 17 477 0 255 3 476 7 492 l8 27 25 -40 c22 -35 38 -46 55 -37 2 1 19 -18
37 -42 31 -43 32 -44 46 -22 l14 21 32 -20 c52 -32 79 -17 131 70 39 66 42 76
30 90 -17 19 -20 34 -5 25 6 -3 10 -2 10 4 0 5 -6 12 -12 15 -13 5 8 28 36 40
7 3 4 9 -6 16 -10 6 -18 19 -18 28 0 10 -9 35 -20 56 -10 22 -17 43 -14 47 3
5 1 9 -5 9 -5 0 -12 9 -16 19 -3 11 -20 35 -37 53 -17 18 -32 43 -34 54 -3 30
-33 74 -50 74 -8 0 -14 10 -14 24 0 13 -4 26 -8 28 -13 5 -56 80 -57 100 -2
17 -29 53 -67 87 -10 9 -30 41 -46 71 -49 95 -55 101 -144 146 -48 24 -89 44
-90 44 -2 0 -21 -9 -43 -19z m136 -2134 c-8 -8 -11 -7 -11 4 0 20 13 34 18 19
3 -7 -1 -17 -7 -23z"/>
</g>
</svg>
